<?xml version="1.0" encoding="UTF-8" standalone="no"?>
<svg
   xmlns:dc="http://purl.org/dc/elements/1.1/"
   xmlns:cc="http://creativecommons.org/ns#"
   xmlns:rdf="http://www.w3.org/1999/02/22-rdf-syntax-ns#"
   xmlns:svg="http://www.w3.org/2000/svg"
   xmlns="http://www.w3.org/2000/svg"
   viewBox="0 0 612 792"
   id="svg22"
   height="792"
   width="612"
   version="1.1">
  <metadata
     id="metadata28">
    <rdf:RDF>
      <cc:Work
         rdf:about="">
        <dc:format>image/svg+xml</dc:format>
        <dc:type
           rdf:resource="http://purl.org/dc/dcmitype/StillImage" />
      </cc:Work>
    </rdf:RDF>
  </metadata>
  <defs
     id="defs26" />
  <g
     id="Layer1000">
    <g
       id="Layer1001">
      <path
         id="path2"
         style="fill:#000000;fill-rule:evenodd"
         d="m 301.2926,298.9415 2.5644,2.9309 h 22.8973 c 54.0164,-64.7145 120.8932,-85.2459 212.1595,-92.565 1.016,-0.0815 1.4339,-0.3052 1.2424,-0.3061 -120.6101,-0.575 -168.6863,27.7768 -238.8636,89.9402 z" />
      <path
         id="path4"
         style="fill:#1b1918;fill-rule:evenodd"
         d="m 352.1097,283.2714 26.2903,18.769 23.9775,-0.0518 2.706,-2.6903 -38.9418,-27.9307 z" />
      <path
         id="path6"
         style="fill:#1b1918;fill-rule:evenodd"
         d="m 330.4443,267.5264 15.0178,-10.9914 -18.3894,-13.1391 -25.22,-0.0422 -1.9834,1.9052 z" />
    </g>
    <path
       id="path9"
       style="fill:#1b1918;fill-rule:evenodd"
       d="m 297.9436,275.5706 12.8618,0.0433 c -0.7438,3.4058 -2.6617,6.3001 -5.7303,8.6944 -3.0804,2.4061 -7.2416,3.6035 -12.4837,3.6035 -5.8352,0 -10.4961,-1.6856 -13.9601,-5.0681 -3.4752,-3.3706 -5.2188,-7.5436 -5.2188,-12.5416 0,-5.1727 1.7202,-9.5431 5.1491,-13.1114 3.4291,-3.5686 7.9972,-5.347 13.716,-5.347 5.5444,0 10.0194,1.6856 13.4367,5.0447 3.4173,3.3591 5.126,7.9272 5.126,13.7157 0,0.4767 -0.0115,1.1392 -0.0349,1.9761 h -23.189 c 0.0464,2.1853 0.43,3.8009 1.1623,4.8586 0.7207,1.0461 2.104,1.5809 4.1496,1.5809 2.9525,0 4.4923,-0.6131 5.0153,-3.4491 z m -0.6913,-9.8017 c -0.0231,-2.3364 -0.4882,-3.9055 -1.4064,-4.7194 -0.9182,-0.802 -2.0689,-1.2086 -3.4289,-1.2086 -3.2199,0 -4.8354,1.9758 -4.8354,5.928 z" />
    <path
       id="path11"
       style="fill:#1b1918;fill-rule:evenodd"
       d="m 472.5949,262.8545 v 25.1012 h -10.2064 v -24.9933 z m 0,-10.9136 v 8.0848 h -10.2064 v -8.0848 z" />
    <path
       id="path13"
       style="fill:#1b1918;fill-rule:evenodd"
       d="m 451.6484,260.8003 v 6.8269 h -5.3427 v 9.8849 c 0,1.3491 0.3097,2.0653 0.7645,2.4105 1.2156,0.9219 2.0083,0.6701 4.5812,0.6597 l 0.0283,7.201 c -2.2576,0.2276 -4.142,0.1901 -6.1385,0.1623 -6.7237,-0.0943 -6.7023,-0.1556 -8.22,-1.5431 -1.522,-1.3913 -1.2172,-3.8068 -1.1882,-7.1815 l 0.0269,-3.1301 v -8.4637 h -4.0115 v -6.8269 h 4.0115 l 0.2157,-8.8726 9.9301,-0.005 v 8.8774 z" />
    <path
       id="path15"
       style="fill:#1b1918;fill-rule:evenodd"
       d="m 406.5246,287.911 c -5.7223,0 -10.2748,-1.7838 -13.6455,-5.3515 -3.371,-3.5682 -5.0622,-7.7382 -5.0622,-12.534 0,-5.1664 1.7608,-9.4641 5.2822,-12.9046 3.5215,-3.4404 8.0971,-5.1549 13.7269,-5.1549 5.6761,0 10.2403,1.6912 13.6923,5.0854 3.4519,3.3942 5.1779,7.6571 5.1779,12.7656 0,5.1549 -1.749,9.4641 -5.2474,12.916 -3.4868,3.452 -8.1318,5.178 -13.9242,5.178 z m 0.3021,-28.1894 c -3.9732,0 -7.1959,4.3778 -7.1959,9.7765 0,5.398 3.2227,9.7758 7.1959,9.7758 3.9728,0 7.1955,-4.3778 7.1955,-9.7758 0,-5.3987 -3.2227,-9.7765 -7.1955,-9.7765 z" />
    <path
       id="path17"
       style="fill:#1b1918;fill-rule:evenodd"
       d="m 504.3015,273.1582 11.6111,-0.002 c -0.541,3.9944 -2.3491,8.3383 -5.1664,10.8508 -2.8229,2.5176 -6.5726,3.7871 -11.2459,3.7871 -5.2494,0 -9.4967,-1.6573 -12.7658,-4.9498 -3.2693,-3.2922 -4.9153,-7.5166 -4.9153,-12.6621 0,-5.2605 1.6347,-9.5886 4.8806,-12.996 3.2462,-3.407 7.4708,-5.1109 12.6621,-5.1109 4.6044,0 8.36,1.2863 11.258,3.8563 2.9034,2.5751 4.6941,6.9555 5.1199,10.8924 l -11.2167,0.0705 c -0.8324,-3.4843 -3.2527,-6.0151 -6.1061,-6.0151 -3.5467,0 -6.4233,3.9078 -6.4233,8.7269 0,4.8182 2.8766,8.726 6.4233,8.726 2.6318,0 4.8951,-2.1527 5.8845,-5.1745 z" />
  </g>
  <path
     id="path20"
     style="fill:none;stroke:#1b1918;stroke-width:0.5;stroke-linecap:butt;stroke-linejoin:miter;stroke-dasharray:none"
     d="M 407.1372,169.5044 A 175.3394,85.8545 0 0 1 582.4767,255.3589 175.3394,85.8545 0 1 1 407.1372,169.5044 Z" />
</svg>
